<?xml version="1.0" encoding="utf-8"?>
<!-- Generator: Adobe Illustrator 16.0.3, SVG Export Plug-In . SVG Version: 6.00 Build 0)  -->
<!DOCTYPE svg PUBLIC "-//W3C//DTD SVG 1.1//EN" "http://www.w3.org/Graphics/SVG/1.1/DTD/svg11.dtd">
<svg version="1.1" id="Ebene_3" xmlns="http://www.w3.org/2000/svg" xmlns:xlink="http://www.w3.org/1999/xlink" x="0px" y="0px"
	 width="600.877px" height="187.666px" viewBox="0 0 600.877 187.666" enable-background="new 0 0 600.877 187.666"
	 xml:space="preserve">
<path fill="#B3B3B3" d="M139.693,186.891c22.489,2.59,54.064-5.066,78.083-20.667C242.322,150.28,273.875,141,282.877,141h38.49
	c9.002,0,37.555,9.28,62.101,25.224c24.019,15.601,55.593,23.268,78.083,20.678c22.49-2.589,127.926-19.015,139.326-21.56
	c-28.474-15.887-92.535-31.134-146.529-29.419c-16.73,0.532-24.021-16.943-37.106-26.854c-16.653-12.612-46.03-22.575-67.728-30.102
	l0,0l-82.334-5.028c-21.267,8.011-62.68,19.606-83.176,35.128c-13.085,9.91-20.376,27.384-37.106,26.853
	c-53.994-1.715-118.056,13.53-146.529,29.417C11.768,167.881,117.203,184.301,139.693,186.891z"/>
<path fill="#808080" d="M280.32,66.896C279.479,68.839,274.46,71,267.014,74h68.582c-7.061-3-11.931-4.921-13.109-6.771
	c-4.668-7.325,16.288-49.379,8.583-58.833s-51.478-11.698-59.114-0.725C264.32,18.646,283.57,59.396,280.32,66.896z"/>
<path fill="#999999" d="M454.348,135.919c-16.73,0.532-24.021-16.942-37.106-26.853c-27.583-20.89-93.355-38.215-99.421-41.986
	c-3.241-2.015,3.547,46.875,3.547,46.875c9.002,0.464,37.555,9.302,62.101,25.245c24.019,15.601,55.593,23.279,78.083,20.689
	c22.49-2.589,88.27-5.891,139.326,5.445C572.403,149.449,508.342,134.204,454.348,135.919z"/>
<path fill="#999999" d="M146.473,135.919c16.73,0.532,24.021-16.942,37.106-26.853c27.583-20.89,93.355-38.215,99.421-41.986
	c3.241-2.015-3.547,46.875-3.547,46.875c-9.002,0.464-37.555,9.302-62.101,25.245c-24.019,15.601-55.593,23.279-78.083,20.689
	C116.779,157.301,51,154-0.057,165.336C28.417,149.449,92.479,134.204,146.473,135.919z"/>
<path fill="#808080" d="M317.82,77.081c6.065,3.771,71.837,21.096,99.421,41.986c13.085,9.911,20.376,27.384,37.106,26.853
	c53.994-1.715,118.056,3.53,146.529,19.417c-28.474-15.887-92.535-31.132-146.529-29.417c-16.73,0.532-24.021-16.942-37.106-26.853
	c-27.583-20.89-93.355-38.215-99.421-41.986c-1.036-0.644-1.046,3.914-0.583,10.409C317.376,77.076,317.568,76.923,317.82,77.081z"
	/>
<path fill="#808080" d="M146.473,145.919c16.73,0.532,24.021-16.942,37.106-26.853c27.583-20.89,93.355-38.215,99.421-41.986
	c0.252-0.157,0.444-0.004,0.583,0.409c0.463-6.496,0.453-11.053-0.583-10.409c-6.065,3.771-71.837,21.096-99.421,41.986
	c-13.085,9.911-20.376,27.384-37.106,26.853c-53.994-1.715-118.056,13.53-146.529,29.417
	C28.417,149.449,92.479,144.204,146.473,145.919z"/>
<path fill="#999999" d="M313.82,64c1.519-20.152,20.586-49.5-3.957-51.5S272.32,9.5,289.32,56S313.82,64,313.82,64z"/>
<g>
	<path fill="#F2F2F2" d="M383.468,156.224C358.922,140.28,330.369,131,321.367,131h-38.49c-9.002,0-40.555,9.28-65.101,25.224
		c-24.019,15.601-55.593,23.268-78.083,20.678c-22.49-2.59-127.926-9.015-139.326-11.56c11.4,2.545,116.836,18.962,139.326,21.552
		c22.489,2.59,54.064-5.068,78.083-20.669C242.322,150.281,273.875,141,282.877,141h38.49c9.002,0,37.555,9.28,62.101,25.224
		c24.019,15.601,55.593,23.268,78.083,20.678c22.49-2.589,127.926-19.015,139.326-21.56c-11.4,2.545-116.836,8.974-139.326,11.563
		C439.062,179.494,407.487,171.824,383.468,156.224z"/>
</g>
<path fill="#F2F2F2" d="M277.542,137.785c3.739,3.363,3.852-0.094,4.34,14.206c0.49,14.298,5.336,27.534,20.411,27.534
	s19.426-13.495,19.785-27.797c0.357-14.304,0.502-10.847,4.21-14.244c3.706-3.398,6.58-13.028,5.636-25.694
	c-0.943-12.667-1.531-24.381-8.354-37.497c-6.824-13.114-6.167-17.159-7.662-27.034c-1.494-9.876-4.568-23.114-14.401-23.044
	c-9.833,0.07-13.008,13.364-14.412,23.254c-1.403,9.888-0.709,13.925-7.413,27.103c-6.702,13.178-7.183,24.897-8.01,37.572
	C270.843,124.819,273.804,134.422,277.542,137.785z"/>
<ellipse transform="matrix(-0.9435 0.3313 -0.3313 -0.9435 610.6105 -23.6374)" fill="#C10900" cx="307.32" cy="40.229" rx="1.833" ry="9.167"/>
<ellipse transform="matrix(0.9435 0.3313 -0.3313 0.9435 30.0103 -95.5759)" fill="#C10900" cx="295.321" cy="40.229" rx="1.833" ry="9.167"/>
<path fill="#C10900" d="M308.487,163c0,0-3.975,24.666-6.669,24.666c-2.798,0-5.664-22.666-5.664-24.666c0,0,3.166,3.79,5.862,3.79
	S307.469,164.703,308.487,163z"/>
<ellipse cx="309.864" cy="171.727" rx="1.623" ry="1.997"/>
<ellipse cx="293.864" cy="171.727" rx="1.623" ry="1.997"/>
<ellipse fill="#E6E6E6" cx="302.753" cy="104.662" rx="20.933" ry="31.662"/>
</svg>
